<?xml version="1.0" encoding="UTF-8" standalone="no"?>
<svg
   xmlns:dc="http://purl.org/dc/elements/1.1/"
   xmlns:cc="http://creativecommons.org/ns#"
   xmlns:rdf="http://www.w3.org/1999/02/22-rdf-syntax-ns#"
   xmlns:svg="http://www.w3.org/2000/svg"
   xmlns="http://www.w3.org/2000/svg"
   xmlns:xlink="http://www.w3.org/1999/xlink"
   xmlns:sodipodi="http://sodipodi.sourceforge.net/DTD/sodipodi-0.dtd"
   xmlns:inkscape="http://www.inkscape.org/namespaces/inkscape"
   height="282.43765"
   width="685.30511"
   xml:space="preserve"
   viewBox="0 0 685.30509 282.43766"
   y="0px"
   x="0px"
   id="Ebene_1"
   version="1.1"
   sodipodi:docname="logo.svg"
   inkscape:version="0.92.4 5da689c313, 2019-01-14"><sodipodi:namedview
   pagecolor="#ffffff"
   bordercolor="#666666"
   borderopacity="1"
   objecttolerance="10"
   gridtolerance="10"
   guidetolerance="10"
   inkscape:pageopacity="0"
   inkscape:pageshadow="2"
   inkscape:window-width="1916"
   inkscape:window-height="1041"
   id="namedview13"
   showgrid="false"
   inkscape:snap-smooth-nodes="false"
   inkscape:zoom="1.716024"
   inkscape:cx="176.49535"
   inkscape:cy="96.650118"
   inkscape:window-x="0"
   inkscape:window-y="37"
   inkscape:window-maximized="0"
   inkscape:current-layer="Ebene_1" /><metadata
   id="metadata21"><rdf:RDF><cc:Work
       rdf:about=""><dc:format>image/svg+xml</dc:format><dc:type
         rdf:resource="http://purl.org/dc/dcmitype/StillImage" /><dc:title /></cc:Work></rdf:RDF></metadata><defs
   id="defs19" />
<style
   id="style2"
   type="text/css">
	.st0{clip-path:url(#SVGID_2_);fill:#A2C99C;}
</style>
<g
   transform="translate(-85.294834,-139.36236)"
   id="g14">
	<defs
   id="defs5">
		<rect
   height="282.5"
   width="685.59998"
   y="139.3"
   x="85"
   id="SVGID_1_" />
	</defs>
	<clipPath
   id="SVGID_2_">
		<use
   height="100%"
   width="100%"
   y="0"
   x="0"
   id="use7"
   style="overflow:visible"
   xlink:href="#SVGID_1_" />
	</clipPath>
	<path
   style="fill:#3c4897;fill-opacity:1"
   id="path10"
   clip-path="url(#SVGID_2_)"
   d="m 726.1,256.9 c 0,0.5 0,1 -0.2,1.7 l -7.2,-5.2 c -2.2,-3 -3.2,-6.7 -3.2,-11 l 0.3,-1.7 c 1.2,-1.7 3,-3 4.2,-3.7 l 2.2,-1.2 c 8.4,-3.1 4.9,16.4 3.9,21.1 m -11,0 h -0.3 c 0.3,0 0.5,0.3 0.7,0.5 l 0.2,0.5 c 1.2,1.5 3,2.5 4.7,3.5 l 0.7,0.5 c 1.2,0.7 2.5,1.5 3.7,2 -1.2,10.5 -7.5,27.2 -18,26.5 -7.7,-0.5 -4,-25 3.5,-40.9 1.3,2.7 3,4.9 4.8,7.4 M 654,248.7 c -1.9,5.7 -16.5,37.9 -25.3,37.7 -1,-7.4 14.1,-37 21.5,-38.9 3.8,-1 4.5,-1 3.8,1.2 m -88.5,13.6 c -1.9,5.7 -21.9,48.7 -23.6,35.5 -0.7,-7.4 9.1,-37.9 16.5,-39.8 3.5,-1 7.8,2.1 7.1,4.3 M 362,258.1 c -2,6 -23.1,51.2 -24.8,37.4 -0.8,-7.8 9.5,-39.9 17.3,-41.9 3.7,-1 8.3,2.3 7.5,4.5 m 79.4,49.1 c -5.3,11.5 -17.3,27.5 -27.3,31.4 -2.3,0.9 -3.6,0.2 -3.8,-1.1 -2.4,-11.9 22.6,-25.8 31.1,-30.3 m 60.2,0 c -5.3,11.5 -17.3,27.5 -27.3,31.4 -2.3,0.9 -3.6,0.2 -3.8,-1.1 -2.4,-11.9 22.6,-25.8 31.1,-30.3 m 146.9,4.7 c -1.9,19.6 -16.7,85.1 -20.8,88.7 -2.1,1.9 -4.3,1 -4.8,-7.2 -1.3,-25.7 13.2,-66.5 25.6,-81.5 m 117.2,-64 c -6,7.2 -15.7,17.5 -32.9,12.5 5,-22.7 -1.2,-30 -11.2,-31 -23.2,-2.2 -31,24.2 -32.4,42.4 0,0.2 0,0.4 0,0.5 -5.6,4.2 -10.3,8 -20.3,14.6 l 5.7,-34.8 c 3.8,-22.4 -0.5,-18.1 -7.4,-21.5 -5.7,-2.6 -4.5,7.4 -7.6,10.7 -2.1,1.9 -26,-27 -40.8,26.7 -0.2,0.6 -0.3,1.1 -0.4,1.7 -7.3,13.3 -43.4,75.1 -46.1,58.4 -2.4,-14.1 10.3,-58.4 13.8,-67.3 2.4,-5.7 2.1,-14.3 -4.5,-17.4 -5.7,-2.9 -10,9.5 -13.6,12.9 -0.5,0.7 -7.9,-12.4 -21,-5.5 -8.8,4.8 -14.8,18.1 -16.9,25.8 -1.1,4.4 -1.6,8.8 -1.4,12.9 -2.9,1.3 -6.8,3 -12,5.2 l -0.2,-1.7 c -1.7,-5.8 -7.7,-9 -20.3,-6.8 l -1.5,0.4 h 0.2 c -6.3,1.4 -13,3.5 -15.3,0.3 0,-0.3 -0.1,-0.5 -0.3,-0.6 -0.6,-1.3 -0.7,-3.3 0,-6.1 2.3,-10 10.9,-21.8 20.9,-26.5 6,-2.8 10.9,-3 6.4,5.1 -10,17.5 17.1,-2.1 8.3,-13.9 -7.7,-10.5 -35.9,6 -44.8,30.1 -2.3,6.4 -2.4,11 -1.2,14.3 -3,1.3 -7,3.1 -12.4,5.4 l -0.2,-1.7 c -1.7,-5.8 -7.7,-9 -20.3,-6.8 l -1.5,0.4 h 0.2 c -8.8,1.9 -18.4,5.3 -15.6,-6.4 2.3,-10 10.9,-21.8 20.9,-26.5 6,-2.8 10.9,-3 6.4,5.1 -10,17.5 17.1,-2.1 8.3,-13.9 -7.7,-10.5 -35.9,6 -44.8,30.1 -1,2.8 -1.6,5.3 -1.8,7.5 -14,23.4 -36.8,58.4 -38.9,45 -2.5,-14.8 10.8,-61.5 14.6,-70.8 2.5,-6 2.3,-15.1 -4.8,-18.3 -6,-3 -10.5,10 -14.3,13.6 -0.5,0.8 -8.3,-13.1 -22.1,-5.8 -9.3,5 -15.6,19.1 -17.8,27.1 -6.3,24.1 7.3,47.9 25.1,23.6 6.3,-8.3 8.5,-13.6 9,-13.8 2.3,-0.5 -11.8,58.2 6.3,57.7 13.4,-0.3 31.7,-27.7 44.5,-49.7 4.2,6.5 15.8,5.5 25.7,2.5 1.9,-0.6 3.6,-1.1 4.9,-1.3 3.8,-0.9 4.9,1.3 4.5,5.1 l -0.6,3.2 c -6.2,2.6 -36.9,20.1 -39.9,34.2 -0.9,3.8 0.6,7.5 4.7,10 13.2,8.1 43.6,-25.8 47.6,-44.8 l 15.5,-6.7 c 5.2,3.9 15,2.8 23.6,0.3 1.9,-0.6 3.6,-1.1 4.9,-1.3 3.8,-0.9 4.9,1.3 4.5,5.1 l -0.6,3.2 c -6.2,2.6 -36.9,20.1 -39.9,34.2 -0.9,3.8 0.6,7.5 4.7,10 13.2,8.1 43.6,-25.8 47.6,-44.8 l 12.5,-5.4 c 2.4,14 12.5,21.2 24.8,4.4 6,-7.9 8.1,-12.9 8.6,-13.1 2.1,-0.5 -11.2,55.3 6,54.9 15.2,-0.4 36.8,-37.1 48.5,-58.4 0.5,15.8 9.6,25.7 22.8,7.6 6,-8.1 15.5,-27 16.2,-27.2 0.5,-0.2 -4.3,26 -6.9,38.2 -0.2,0.7 -1.4,2.1 -2.4,3.6 -21.7,30.1 -30.5,54.1 -31.2,89.7 -0.2,9.1 6.7,16.2 13.8,14.1 17.7,-5.7 30.3,-66.1 38.2,-112.6 l 21.7,-17.7 c 0.7,11.1 5.5,23.3 17.8,21.2 8,-1.2 19.2,-10 24.5,-32.9 14.7,3.7 26.2,-1.5 38.2,-18.2 2,-3.5 0.2,-5.5 -4.3,-0.3"
   class="st0" />
	<path
   style="fill:#3c4897;fill-opacity:1"
   id="path12"
   clip-path="url(#SVGID_2_)"
   d="m 330,404.7 c -6,12.6 -13.4,8.3 -21.1,2.3 -49.4,-38 55.7,-250 10.9,-265.7 -9.7,-3.4 -13.7,-2.6 -20.3,4.6 -2.3,2.9 -3.7,5.4 -5.7,8.3 -10.9,16.9 -20.3,34.6 -29.4,52.3 -8.3,16.3 -16.6,33.4 -25.1,49.1 -1.4,2.9 -5.1,11.1 -4,3.7 1.1,-10.9 11.7,-59.7 9.7,-65.7 -2.6,-7.1 -9.1,-12.3 -17.1,-8.9 -8.3,4.3 -48,85.4 -55.7,102.8 -9.4,20.3 -16.6,37.4 -24.3,58.3 -1.1,2.3 -3.7,12.3 -6,12.6 -7.1,-9.4 15.1,-100.3 17.7,-118.3 2.3,-16 6,-26.6 -13.4,-29.4 -16.9,-2 -39.1,33.4 -46.8,46.6 -8.3,14.3 -21.1,42.8 -9.4,56.3 1.7,2.3 10.3,7.7 13.4,5.7 4,-2.3 -2.3,-5.1 -3.7,-6.3 -2.9,-2.3 -3.7,-10.6 -3.1,-14 2.3,-15.1 11.4,-32.3 20,-45.4 2,-2.9 23.1,-32.9 25.7,-27.4 0.6,8 -8.9,56 -11.1,68.6 -1.7,8.3 -15.4,100 19.1,77.7 6.3,-4 14.3,-30.3 18,-38 l 10.3,-24.3 c 12.9,-28.3 25.4,-62.8 42.8,-88.3 -1.1,6.6 -2.6,13.4 -4,20.3 -2,10.6 -7.7,36 -6,45.4 2,6 14.6,18 20,12.6 2,-2.3 8.9,-18.9 10.9,-23.1 6.9,-14.6 14.3,-32 22.3,-45.7 13.1,-22.6 30.3,-63.1 46.3,-81.1 8.6,-9.1 2.9,15.7 2.3,18.3 -9.1,40.6 -23.7,80 -32.9,120.5 -3.4,18.3 -6.6,36.6 -7.4,55.1 v 1.7 c -0.9,12 0.3,26.6 2.6,38.3 4,16.6 13.4,32.9 30.6,36.8 11.4,2.9 24.3,-0.6 31.4,-12.9 3,-6.3 -1.5,-15.7 -7.5,-3.4"
   class="st0" />
</g>
</svg>